# xmcd
#
# Track frame offsets:
#	150
#	20467
#	37956
#	49940
#	69861
#	83333
#	100105
#	114919
#	135056
#	147384
#	164203
#	181448
#	197703
#	217868
#	235979
#	253270
#	266858
#	279345
#	297603
#	314931
#
# Disc length: 4429 seconds
#
# Revision: 1
# Processed by: cddbd v1.4b42PL1 Copyright (c) Steve Scherf et al.
# Submitted via: audiograbber 1.80
#
DISCID=2a114b14
DTITLE=Best of the Green Mountain Blues - Volume 2, Disc 2
DYEAR=1900
DGENRE=
TTITLE0=The N-Zones - Killer Bee Bop
TTITLE1=Zoot Wilson - Strange Underpants
TTITLE2=Zoot Wilson - I Don't Know What's Wrong With Me
TTITLE3=Used and Abluesed - I Wanna Know
TTITLE4=Jalapeno Brothers - Holding Onto Broken Glass
TTITLE5=Rik Palieri - Radiator Man
TTITLE6=Steph Pappas Experience - Got the Feeling to take the Highway
TTITLE7=(sic) - Electric Blues #420
TTITLE8=Willie Edwards - Everlasting Tears
TTITLE9=Nobby Reed - Good Times
TTITLE10=Vibrokings - Build Myself a Cabin
TTITLE11=Blue Fox and the rockin' Daddys - Guitar Maniac
TTITLE12=Julie Tiller Band - Soulmate Cry
TTITLE13=James O'Halloran with Plan B - In a Mood
TTITLE14=Dogcatchers - Brown Dog Blues
TTITLE15=Blind Pig Blues Band - Too Old for the Young Girls
TTITLE16=Keltones - Automatic Pilot
TTITLE17=Texas Twister - The Keeper
TTITLE18=Brotherhood - I Used to Love You Baby
TTITLE19=Jenni Johnson - Moonlight in Vermont
EXTD=
EXTT0=
EXTT1=
EXTT2=
EXTT3=
EXTT4=
EXTT5=
EXTT6=
EXTT7=	
EXTT8=
EXTT9=
EXTT10=
EXTT11=
EXTT12=
EXTT13=
EXTT14=
EXTT15=
EXTT16=
EXTT17=
EXTT18=
EXTT19=
PLAYORDER=
